<?xml version="1.0" encoding="utf-8"?>
<svg version="1.1" xmlns:xlink="http://www.w3.org/1999/xlink" width="22px" height="22px" xmlns="http://www.w3.org/2000/svg">
  <g transform="matrix(1 0 0 1 -36 -114 )">
    <path d="M 21.999945 10.999879  L 13.2000858085937 10.999879  C 13.1949996835931 12.2112697546288  12.211541822187 13.1906071544844  11.0001403903454 13.1906071544844  C 10.4189316055793 13.1906071544844  9.86133823851466 12.9606115003511  9.44914581445313 12.5508541855469  C 9.03938849964888 12.1386617614853  8.80939284551565 11.5810683944207  8.80939284551565 10.9998596096546  C 8.80939284551565 9.78845817781302  9.78873024537116 8.8050003164069  11.000121 8.79991419140625  L 11.000121 5.5E-05  C 11.0111373890971 2.18012220402611E-05  11.0221538219653 0  11.0331702610858 0  C 17.0899802070015 0  21.9999947981952 4.91001979299851  21.9999947981952 10.9668297389142  C 21.9999947981952 10.9778461780347  21.999978198778 10.9888626109029  21.999945 10.999879  Z M 21.8899467617188 12.5618540136719  L 21.8899467617188 12.5508541855469  C 21.1179072843257 17.972048368627  16.4758897490888 21.9998260801309  10.9999979198691 21.9998260801309  C 4.92496287384633 21.9998260801309  0.000173919869083363 17.0750371261537  0.000173919869083363 11.0000020801309  C 0.000173919869083363 5.52411025091121  4.027951631373 0.88209271567429  9.44914581445313 0.11005323828125  L 9.44914581445313 2.34301750976563  C 5.25738038828414 3.0970724364209  2.20728172891384 6.74481014036343  2.20728172891384 11.0038588863205  C 2.20728172891384 15.863886930258  6.14711289786697 19.8037180992112  11.0071409418045 19.8037180992112  C 15.2661896877616 19.8037180992112  18.9139273917041 16.7536194398409  19.6679823183594 12.5618540136719  L 21.8899467617188 12.5618540136719  Z M 17.42401821875 12.5508541855469  L 17.413018390625 12.5508541855469  C 16.6925118670165 15.5074338671656  14.0438878967663 17.5881125047628  11.000782071409 17.5881125047628  C 7.35576104142229 17.5881125047628  4.40088766711217 14.6332391304527  4.40088766711217 10.988218100466  C 4.40088766711217 7.94511227510872  6.48156630470939 5.29648830485851  9.43814598632812 4.57598178125  L 9.43814598632812 6.885944828125  C 7.72830697521183 7.53002250514061  6.59635273245777 9.16601762155533  6.59635273245777 10.9931425483091  C 6.59635273245777 12.1651429562524  7.06510329332684 13.2884604888652  7.89817062890625 14.1128291992188  C 8.72250747207123 14.9319955739555  9.83744940151988 15.3917662736692  10.9995874227973 15.3917662736692  C 12.8281622064005 15.3917662736692  14.4661402360673 14.2607933584963  15.114055171875 12.5508541855469  L 17.42401821875 12.5508541855469  Z " fill-rule="nonzero" fill="#ffffff" stroke="none" transform="matrix(1 0 0 1 36 114 )" />
  </g>
</svg>