<?xml version="1.0" encoding="utf-8"?>
<svg version="1.1" xmlns:xlink="http://www.w3.org/1999/xlink" width="21px" height="22px" xmlns="http://www.w3.org/2000/svg">
  <g transform="matrix(1 0 0 1 -36 -314 )">
    <path d="M 20.5 17  C 20.9 16.3  21.1 15.4  20.9 14.4  C 20.5 13.1  19.6 12.2  18.4 12.1  C 18.2 12.1  18 12  17.8 12  C 17.2 12  16.6 12.2  16.1 12.5  L 15.6 12.2  C 15.5 12.1  15.3 12  15.3 11.7  L 15.3 10  C 15.3 9.8  15.4 9.6  15.6 9.6  L 16.1 9.3  C 16.7 9.8  17.3 10  18 10  C 18.2 10  18.3 10  18.5 10  C 19.7 9.8  20.7 8.8  20.9 7.6  C 21.1 6.7  20.8 5.9  20.3 5.2  C 19.7 4.5  18.9 4.1  17.9 4.1  L 17.8 4.1  C 16.7 4.2  15.7 4.8  15.2 5.9  C 15 6.3  14.9 6.8  15 7.3  L 14.5 7.6  C 14.4 7.6  14.4 7.7  14.3 7.7  C 14.2 7.7  14.1 7.7  14 7.6  L 12.5 6.7  C 12.4 6.6  12.2 6.5  12.2 6.2  L 12.2 5.7  C 13.4 5.1  14.2 3.8  13.9 2.4  C 13.7 1.2  12.7 0.3  11.6 0.100000000000001  C 11.4 0  11.2 0  10.9 0  C 9.3 0  8 1.3  8 3  C 8 4.2  8.7 5.2  9.7 5.7  L 9.7 6.2  C 9.7 6.4  9.6 6.6  9.4 6.6  L 7.8 7.6  C 7.7 7.6  7.7 7.7  7.6 7.7  C 7.5 7.7  7.4 7.7  7.3 7.6  L 6.9 7.3  C 6.9 6.9  6.9 6.4  6.6 5.8  C 6.1 4.7  5.1 4  3.9 4  C 3.1 4  2.2 4.4  1.7 5.1  C 1.1 5.7  0.9 6.6  1.1 7.5  C 1.3 8.7  2.3 9.6  3.5 9.9  C 3.6 9.9  3.8 10  4 10  C 4.6 10  5.2 9.8  5.7 9.4  L 6.2 9.7  C 6.3 9.8  6.5 9.9  6.5 10.2  L 6.5 11.9  C 6.5 12.1  6.4 12.3  6.2 12.3  L 5.7 12.6  C 5.2 12.2  4.6 12.1  4 12.1  C 3.8 12.1  3.6 12.1  3.4 12.2  C 2.2 12.4  1.3 13.4  1 14.6  C 0.8 15.5  1.1 16.5  1.6 17.2  C 2.3 17.6  3.1 18  4 18  C 5 18  5.9 17.5  6.6 16.5  C 6.9 15.8  7 15.2  7 14.7  L 7.5 14.4  C 7.6 14.4  7.6 14.3  7.7 14.3  C 7.8 14.3  7.9 14.3  8 14.4  L 9.5 15.3  C 9.6 15.4  9.8 15.5  9.8 15.8  L 9.8 16.3  C 8.6 16.9  7.8 18.2  8.1 19.6  C 8.3 20.8  9.3 21.7  10.4 21.9  C 10.6 22  10.8 22  11 22  C 12.6 22  14 20.7  14 19  C 14 17.8  13.3 16.8  12.3 16.3  L 12.3 15.8  C 12.3 15.6  12.4 15.4  12.6 15.4  L 14.2 14.5  C 14.3 14.5  14.3 14.4  14.4 14.4  C 14.5 14.4  14.6 14.4  14.7 14.5  L 15.2 14.8  C 15.2 15.3  15.2 15.9  15.7 16.6  C 16.2 17.5  17.2 18.1  18.3 18.1  C 19.2 18.1  20 17.7  20.5 17  Z M 16.9 7  C 16.9 6.4  17.4 6  17.9 6  C 18.4 6  18.9 6.4  18.9 7  C 18.9 7.6  18.5 8  17.9 8  C 17.4 8  16.9 7.6  16.9 7  Z M 5 7  C 5 7.5  4.5 8  4 8  C 3.4 8  3 7.5  3 7  C 3 6.4  3.4 6  4 6  C 4.5 6  5 6.4  5 7  Z M 5 15  C 5 15.5  4.5 16  4 16  C 3.4 16  3 15.6  3 15  C 3 14.4  3.4 14  4 14  C 4.5 14  5 14.5  5 15  Z M 10 3  C 10 2.4  10.4 2  11 2  C 11.6 2  12 2.4  12 3  C 12 3.6  11.6 4  11 4  C 10.4 4  10 3.5  10 3  Z M 12 19  C 12 19.6  11.5 20  11 20  C 10.5 20  10 19.5  10 19  C 10 18.5  10.4 18  11 18  C 11.6 18  12 18.4  12 19  Z M 13.5 12.4  L 13.4 12.4  L 11 13.9  L 8.5 12.4  L 8.5 9.5  L 11 8.1  L 13.5 9.6  L 13.5 12.4  Z M 18.9 15  C 18.9 15.5  18.5 16  17.9 16  C 17.4 16  16.9 15.6  16.9 15  C 16.9 14.4  17.3 14  17.9 14  C 18.4 14  18.9 14.5  18.9 15  Z " fill-rule="nonzero" fill="#ffffff" stroke="none" transform="matrix(1 0 0 1 36 314 )" />
  </g>
</svg>