<?xml version="1.0" encoding="utf-8"?>
<svg version="1.1" xmlns:xlink="http://www.w3.org/1999/xlink" width="16px" height="18px" xmlns="http://www.w3.org/2000/svg">
  <g transform="matrix(1 0 0 1 -1395 -21 )">
    <path d="M 6.28125 16.03125  C 6.28125 17  7.03125 17.75  8 17.75  C 8.96875 17.75  9.71875 17  9.71875 16.03125  L 6.28125 16.03125  Z M 15.34375 13.90625  L 13.640625 12.15625  L 13.640625 7.6875  C 13.640625 5  11.734375 2.75  9.25 2.15625  L 9.25 1.59375  C 9.25 0.96875  8.90625 0.40625  8.3125 0.28125  C 7.453125 0.0781250000000002  6.75 0.734375  6.75 1.578125  L 6.75 2.171875  C 4.265625 2.75  2.359375 5  2.359375 7.6875  L 2.359375 12.15625  L 0.65625 13.90625  L 0.65625 14.78125  L 15.34375 14.78125  L 15.34375 13.90625  Z " fill-rule="nonzero" fill="#333333" stroke="none" transform="matrix(1 0 0 1 1395 21 )" />
  </g>
</svg>