<?xml version="1.0" encoding="utf-8"?>
<svg version="1.1" xmlns:xlink="http://www.w3.org/1999/xlink" width="20px" height="20px" xmlns="http://www.w3.org/2000/svg">
  <g transform="matrix(1 0 0 1 -37 -15 )">
    <path d="M 7.77777778645833 0  C 8.39142750311678 0  8.88888888020833 0.497461403133217  8.88888888020833 1.11111111979167  L 8.88888888020833 5.555555546875  C 8.88888888020833 6.16920526353345  8.39142750311678 6.66666665228425  7.77777778645833 6.66666666666667  L 1.11111111979167 6.66666666666667  C 0.497461392963313 6.66666666666667  0 6.16920527370335  0 5.555555546875  L 0 1.11111111979167  C 0 0.497461392963313  0.497461392963313 0  1.11111111979167 0  L 7.77777778645833 0  Z M 8.88888888020833 10  C 8.88888888020833 9.38635028334155  8.39142750311678 8.88888889459075  7.77777778645833 8.88888888020833  L 1.11111111979167 8.88888888020833  C 0.497461392963313 8.88888888020833  0 9.38635027317165  0 10  L 0 18.8888888802083  C 0 19.5025386070367  0.497461392963313 20  1.11111111979167 20  L 7.77777778645833 20  C 8.39142750311678 19.9999999856176  8.88888888020833 19.5025385968668  8.88888888020833 18.8888888802083  L 8.88888888020833 10  Z M 20 14.444444453125  C 20 13.8307947262966  19.5025386070367 13.3333333333333  18.8888888802083 13.3333333333333  L 12.2222222135417 13.3333333333333  C 11.6085724968832 13.3333333477157  11.1111111197917 13.8307947364665  11.1111111197917 14.444444453125  L 11.1111111197917 18.8888888802083  C 11.1111111197917 19.5025385968668  11.6085724968832 19.9999999856176  12.2222222135417 20  L 18.8888888802083 20  C 19.5025386070367 20  20 19.5025386070367  20 18.8888888802083  L 20 14.444444453125  Z M 20 1.11111111979167  C 20 0.497461392963313  19.5025386070367 0  18.8888888802083 0  L 12.2222222135417 0  C 11.6085724968832 0  11.1111111197917 0.497461403133217  11.1111111197917 1.11111111979167  L 11.1111111197917 10  C 11.1111111197917 10.6136497166584  11.6085724968832 11.1111111054092  12.2222222135417 11.1111111197917  L 18.8888888802083 11.1111111197917  C 19.5025386070367 11.1111111197917  20 10.6136497268284  20 10  L 20 1.11111111979167  Z " fill-rule="nonzero" fill="#ffffff" stroke="none" transform="matrix(1 0 0 1 37 15 )" />
  </g>
</svg>