<?xml version="1.0" encoding="utf-8"?>
<svg version="1.1" xmlns:xlink="http://www.w3.org/1999/xlink" width="18px" height="23px" xmlns="http://www.w3.org/2000/svg">
  <g transform="matrix(1 0 0 1 -38 -163 )">
    <path d="M 17.9195737092391 3.27342458677686  L 17.2252632472826 3.30044550619834  C 17.0299167798913 3.30852272727273  16.8374745244565 3.31163158574381  16.6492102581522 3.31163158574381  C 11.6956182065217 3.31163158574381  9.51376528532609 0.722795067148752  9.49560122282608 0.700481017561998  L 9.00068783967392 0.0825154958677956  L 8.50508661684783 0.700451962809922  C 8.48348335597827 0.727530991735534  6.18120754076087 3.51048230888429  0.774685801630433 3.30044550619834  L 0.080349864130433 3.27342458677686  L 0.080349864130433 11.8275180785124  C 0.080349864130433 14.9001162190083  0.979814877717395 19.3817826704546  8.7577785326087 22.810592071281  L 9.00002547554348 22.9175135588843  L 8.50508661684783 22.9175135588843  C 16.2830247961956 19.4887332128099  17.9195737092391 14.9001162190083  17.9195737092391 11.8275180785124  L 17.9195737092391 3.27342458677686  Z M 8.11309442934783 16.397791838843  L 2.92082201086956 11.1505326704545  L 4.30039911684783 9.87555204028925  L 7.0611328125 12.1986828512397  C 7.0611328125 12.1986828512397  10.8730383831522 7.70106534090908  14.5534137228261 5.60226627066115  L 15.0791270380435 6.27764398243804  C 15.0791270380435 6.27764398243804  10.4790081521739 10.6252518078512  8.11309442934783 16.3977627840909  Z " fill-rule="nonzero" fill="#ffffff" stroke="none" transform="matrix(1 0 0 1 38 163 )" />
  </g>
</svg>