<?xml version="1.0" encoding="utf-8"?>
<svg version="1.1" xmlns:xlink="http://www.w3.org/1999/xlink" width="18px" height="18px" xmlns="http://www.w3.org/2000/svg">
  <g transform="matrix(1 0 0 1 -1449 -21 )">
    <path d="M 17.75 9  C 17.75 4.171875  13.828125 0.25  9 0.25  C 4.171875 0.25  0.25 4.171875  0.25 9  C 0.25 13.828125  4.171875 17.75  9 17.75  C 13.828125 17.75  17.75 13.828125  17.75 9  Z M 9.625 12.75  L 9.625 14  L 8.375 14  L 8.375 12.75  L 9.625 12.75  Z M 11.9375 6.9375  C 11.9375 8.359375  10.96875 9.140625  9.84375 10.03125  L 9.734375 10.125  C 9.671875 10.171875  9.625 10.28125  9.625 10.375  L 9.625 11.515625  L 8.375 11.515625  L 8.375 10.375  C 8.375 9.890625  8.59375 9.4375  8.953125 9.140625  L 9.0625 9.046875  C 10.15625 8.171875  10.6875 7.71875  10.6875 6.9375  C 10.6875 6  9.9375 5.25  9 5.25  C 8.03125 5.25  7.3125 5.96875  7.3125 6.9375  L 6.0625 6.9375  C 6.0625 5.296875  7.359375 4  9 4  C 10.625 4  11.9375 5.3125  11.9375 6.9375  Z " fill-rule="nonzero" fill="#333333" stroke="none" transform="matrix(1 0 0 1 1449 21 )" />
  </g>
</svg>