<?xml version="1.0" encoding="utf-8"?>
<svg version="1.1" xmlns:xlink="http://www.w3.org/1999/xlink" width="20px" height="20px" xmlns="http://www.w3.org/2000/svg">
  <g transform="matrix(1 0 0 1 -38 -215 )">
    <path d="M 5.26946107784431 4.96428571428571  C 5.26946107784431 4.96428571428571  7.36526946107784 7.14285714285714  7.36526946107784 7.14285714285714  C 7.5688622754491 7.3452380952381  7.66467065868263 7.73809523809524  7.5688622754491 7.94047619047619  C 7.47305389221557 8.14285714285714  7.17365269461078 8.33333333333333  6.87425149700599 8.33333333333333  L 0.778443113772455 8.33333333333333  C 0.383233532934132 8.33333333333333  0.0838323353293412 8.03571428571429  0.0838323353293412 7.64285714285714  L 0.0838323353293412 1.48809523809524  C 0.0838323353293412 1.19047619047619  0.287425149700599 0.988095238095238  0.383233532934132 0.69047619047619  C 0.682634730538922 0.595238095238095  0.982035928143712 0.69047619047619  1.18562874251497 0.892857142857143  L 3.07784431137725 2.77380952380952  C 5.5688622754491 0.392857142857143  9.16167664670659 -0.595238095238096  12.562874251497 0.392857142857143  C 15.9640718562874 1.38095238095238  18.5508982035928 3.96428571428571  19.5449101796407 7.33333333333333  C 21.0419161676647 12.5952380952381  17.9520958083832 18.047619047619  12.6586826347305 19.5357142857143  C 7.47305389221557 21.0238095238095  1.97604790419162 18.047619047619  0.38323353293413 12.7857142857143  C 0.179640718562873 11.9880952380952  0.586826347305388 11.202380952381  1.37724550898203 11  C 2.16766467065868 10.797619047619  2.97005988023952 11.202380952381  3.17365269461078 11.9880952380952  C 3.97604790419162 14.7619047619048  6.26347305389221 16.75  9.16167664670659 17.1428571428571  C 12.059880239521 17.5357142857143  14.8502994011976 16.1547619047619  16.251497005988 13.6666666666667  C 18.0479041916168 10.6904761904762  17.2455089820359 6.82142857142857  14.5508982035928 4.64285714285715  C 11.8562874251497 2.46428571428572  7.86826347305389 2.58333333333333  5.26946107784431 4.96428571428571  Z " fill-rule="nonzero" fill="#ffffff" stroke="none" transform="matrix(1 0 0 1 38 215 )" />
  </g>
</svg>