<?xml version="1.0" encoding="utf-8"?>
<svg version="1.1" xmlns:xlink="http://www.w3.org/1999/xlink" width="15px" height="22px" xmlns="http://www.w3.org/2000/svg">
  <g transform="matrix(1 0 0 1 -40 -265 )">
    <path d="M 2.81274802362351 20.9175872093023  L 4.79737102399554 12.8629118300327  L 0.804315476190476 12.8629118300327  C 0.282986118861607 12.8629118300327  -0.0766369047619044 12.3022529069767  0.108878976004464 11.7791666583394  L 4.0766369047619 0.589437992823401  C 4.18653122264595 0.279502327794732  4.463133493904 0.0746630285919902  4.77182540457589 0.0746124114280525  L 11.4672619047619 0.0746124114280525  C 11.9955357142857 0.0746124114280525  12.3556547619048 0.649660869367733  12.15625 1.1754118300327  L 9.84598214285714 7.26804747229288  L 14.195188499814 7.26804747229288  C 14.8348214285714 7.26804747229288  15.1760912853423 8.078125  14.7542162620908 8.59454941860465  L 4.09102183314732 21.6490552325581  C 3.57266866629464 22.2837936046512  2.61160714285714 21.7337936046512  2.81274802362351 20.9175872093023  Z " fill-rule="nonzero" fill="#ffffff" stroke="none" transform="matrix(1 0 0 1 40 265 )" />
  </g>
</svg>