<?xml version="1.0" encoding="utf-8"?>
<svg version="1.1" xmlns:xlink="http://www.w3.org/1999/xlink" width="20px" height="20px" xmlns="http://www.w3.org/2000/svg">
  <g transform="matrix(1 0 0 1 -36 -64 )">
    <path d="M 1.07642309428467 11.0704645073171  C 1.07642309428467 15.9967226390979  5.05007609263408 19.990243902439  9.95182547749059 19.990243902439  C 14.8535748623471 19.990243902439  18.8272278606965 15.9967226390979  18.8272278606965 11.0704645073171  C 18.8272278606965 6.14420637553628  14.8535748623471 2.15068511219512  9.95182547749059 2.15068511219512  C 5.05007609263409 2.15068511219512  1.07642309428467 6.14420637553628  1.07642309428467 11.0704645073171  Z M 19.1822439606844 5.7863872  L 18.9301825312462 6.03970893658536  C 18.7963533679326 6.17925129560705  18.6118039727717 6.25808363473836  18.4189593593011 6.25808363473836  C 18.2261147458304 6.25808363473836  18.0415653506696 6.17925129560705  17.9077361873559 6.03970893658536  L 17.4071634801602 5.53306546341464  C 17.1318672478572 5.25474161671824  17.1318672478572 4.80523818815981  17.4071634801602 4.52691434146342  L 17.6592249095984 4.27359260487805  C 17.7256791361004 4.20625939109285  17.7627251534376 4.11510702864715  17.762179580148 4.02027086829268  C 17.7627251482678 3.92543471468696  17.7256791313206 3.83428236022177  17.6592249095984 3.76694915121951  L 16.150406504065 2.25415455609756  C 16.011936929727 2.11581820583077  15.7883033906225 2.11581820583077  15.6498338162844 2.25415455609756  L 15.3977723868463 2.50747629268293  C 15.2645928852411 2.64147067336719  15.0838737218409 2.71676046920649  14.8954246135178 2.71676046920649  C 14.7069755051946 2.71676046920649  14.5262563417945 2.64147067336719  14.3930768401893 2.50747629268293  L 13.8925041524087 2.00440074146341  C 13.75917640449 1.87055534156157  13.6842611809753 1.68893257816092  13.6842611809753 1.49954121951219  C 13.6842611809753 1.31014986086347  13.75917640449 1.12852709746282  13.8925041524087 0.994681697560975  L 14.1445655624317 0.741359980487805  C 14.6106218787677 0.272925582327233  15.2427584400477 0.00975785902650443  15.9018952360151 0.00975785902650443  C 16.5610320319824 0.00975785902650443  17.1931685932624 0.272925582327233  17.6592249095984 0.741359980487805  L 19.0792892901347 2.18993213658537  C 19.5311904714753 2.60979915364148  19.8194254103852 3.17776672541504  19.8922761606601 3.79192452682927  C 19.961741597568 4.52968727643975  19.7016224487737 5.26035545298859  19.1822439606844 5.7863872  Z M 2.49648749423614 5.53306546341464  L 1.99591478704041 6.03970893658536  C 1.86273528543524 6.17370331726963  1.68201612203508 6.24899311310893  1.49356701371193 6.24899311310893  C 1.30511790538878 6.24899311310893  1.12439874198862 6.17370331726963  0.99121924038345 6.03970893658536  L 0.806610867613154 5.85417752195122  C 0.363246923447392 5.43009737083221  0.0818490178373968 4.86322505509646  0.0113748137361973 4.25218513170732  C -0.0591751028667264 3.51322218283628  0.20102624760435 2.78101559548161  0.721407013711929 2.25415455609756  L 2.24442606479796 0.741359980487805  C 2.71048238034506 0.272925588295948  3.34261893746392 0.0097578687835977  4.0017557286737 0.0097578687835977  C 4.66089251988349 0.0097578687835977  5.29302907700235 0.272925588295948  5.75908539254945 0.741359980487805  L 6.01114682198762 0.994681697560975  C 6.1444745699063 1.12852709746282  6.21938979342098 1.31014986086347  6.21938979342098 1.49954121951219  C 6.21938979342098 1.68893257816092  6.1444745699063 1.87055534156157  6.01114682198762 2.00440074146341  L 5.51057413420701 2.50747629268293  C 5.37739463260184 2.64147067336719  5.19667546920168 2.71676046920649  5.00822636087853 2.71676046920649  C 4.81977725255538 2.71676046920649  4.63905808915522 2.64147067336719  4.50587858755005 2.50747629268293  L 4.27156795534523 2.25415455609756  C 4.1330983810072 2.11581820583077  3.90946484190264 2.11581820583077  3.77099526756462 2.25415455609756  L 2.24442606479796 3.76694915121951  C 2.17797184307572 3.83428236022177  2.1409258261285 3.92543471468696  2.14147139424827 4.02027086829268  C 2.14092582095873 4.11510702864715  2.1779718382959 4.20625939109285  2.24442606479796 4.27359260487805  L 2.49648749423614 4.52691434146342  C 2.77178372653916 4.80523818815981  2.77178372653916 5.25474161671824  2.49648749423614 5.53306546341464  Z M 9.6145601941512 4.98360704390244  L 10.3245923941269 4.98360704390244  C 10.5206623645126 4.98360705467873  10.6796084746997 5.14334790415269  10.6796084746997 5.34039822439024  L 10.6618576774663 11.6056512780488  C 10.6962587665515 11.8354914241579  10.6135818008585 12.0673402929213  10.4417476908142 12.2229  L 7.24660284916879 15.4340205853659  C 7.10813327256513 15.5723569485636  6.88449971857673 15.5723569485636  6.74603014197306 15.4340205853659  L 6.24545745419246 14.9309450341463  C 6.17824841617589 14.8639515674313  6.14044428826773 14.7727572181566  6.14044428826773 14.677623297561  C 6.14044428826773 14.5824893769654  6.17824841617589 14.4912950276906  6.24545745419245 14.4243015609756  L 9.15658942361364 11.4986139121951  C 9.2230436501157 11.4312806984099  9.26008966745287 11.3401283359642  9.25373134328358 11.2452921756098  L 9.25373134328358 5.34039822439024  C 9.25954409416333 5.1433478965327  9.4184902161835 4.98360704390244  9.6145601941512 4.98360704390244  Z " fill-rule="nonzero" fill="#ffffff" stroke="none" transform="matrix(1 0 0 1 36 64 )" />
  </g>
</svg>