<?xml version="1.0" encoding="utf-8"?>
<svg version="1.1" xmlns:xlink="http://www.w3.org/1999/xlink" width="22px" height="22px" xmlns="http://www.w3.org/2000/svg">
  <g transform="matrix(1 0 0 1 -36 -365 )">
    <path d="M 21.89 9.00952380952381  C 22 8.90476190476191  22 8.8  21.89 8.6952380952381  C 21.78 8.59047619047619  21.67 8.48571428571429  21.45 8.48571428571429  L 18.81 8.06666666666667  C 18.7 7.64761904761905  18.48 7.12380952380953  18.26 6.70476190476191  C 18.48 6.4952380952381  18.7 6.18095238095238  19.03 5.76190476190476  C 19.36 5.34285714285714  19.69 5.02857142857143  19.8 4.81904761904762  C 19.91 4.71428571428572  19.91 4.60952380952381  19.91 4.50476190476191  C 19.91 4.4  19.91 4.2952380952381  19.8 4.19047619047619  C 19.47 3.77142857142857  18.7 2.93333333333333  17.49 1.88571428571429  C 17.38 1.78095238095238  17.27 1.78095238095238  17.16 1.78095238095238  C 17.05 1.78095238095238  16.94 1.78095238095238  16.83 1.88571428571429  L 14.85 3.35238095238095  C 14.41 3.14285714285714  13.97 2.93333333333333  13.53 2.82857142857143  L 13.09 0.314285714285714  C 13.09 0.209523809523809  13.09 0.104761904761905  12.98 0  C 12.87 0  12.76 0  12.65 0  L 9.46 0  C 9.13 0  9.02 0.20952380952381  8.91 0.41904761904762  C 8.69 0.838095238095239  8.47 1.67619047619048  8.36 2.93333333333333  C 7.92 3.03809523809524  7.48 3.24761904761905  7.04 3.45714285714286  L 5.06 1.99047619047619  C 4.95 1.88571428571429  4.84 1.88571428571429  4.73 1.88571428571429  C 4.51 1.88571428571429  4.07 2.2  3.41 2.82857142857143  C 2.75 3.45714285714286  2.2 3.98095238095238  1.98 4.2952380952381  C 1.87 4.4  1.87 4.50476190476191  1.87 4.60952380952381  C 1.87 4.71428571428572  1.87 4.81904761904762  1.98 4.92380952380953  C 2.64 5.65714285714286  3.19 6.28571428571429  3.52 6.80952380952381  C 3.3 7.12380952380953  3.08 7.54285714285714  2.97 7.96190476190476  L 0.33 8.38095238095238  C 0.33 8.38095238095238  0.22 8.48571428571428  0.11 8.59047619047619  C 0 8.6952380952381  0 8.8  0 8.90476190476191  L 0 11.9428571428571  C 0 12.047619047619  0 12.152380952381  0.11 12.2571428571429  C 0.22 12.3619047619048  0.33 12.4666666666667  0.44 12.4666666666667  L 3.08 12.8857142857143  C 3.19 13.3047619047619  3.41 13.8285714285714  3.63 14.247619047619  C 3.41 14.4571428571429  3.19 14.7714285714286  2.86 15.1904761904762  C 2.53 15.6095238095238  2.2 15.9238095238095  2.09 16.1333333333333  C 1.98 16.2380952380952  1.98 16.3428571428571  1.98 16.4476190476191  C 1.98 16.552380952381  1.98 16.6571428571429  2.09 16.7619047619048  C 2.42 17.2857142857143  3.19 18.0190476190476  4.4 19.0666666666667  C 4.51 19.1714285714286  4.62 19.1714285714286  4.73 19.1714285714286  C 4.84 19.1714285714286  4.95 19.1714285714286  5.06 19.0666666666667  L 7.04 17.6  C 7.48 17.8095238095238  7.92 18.0190476190476  8.36 18.1238095238095  L 8.8 20.6380952380952  C 8.8 20.7428571428571  8.8 20.847619047619  8.91 20.952380952381  C 9.02 21.0571428571429  9.13 21.0571428571429  9.24 21.0571428571429  L 12.43 21.0571428571429  C 12.76 21.0571428571429  12.87 20.847619047619  12.98 20.6380952380952  C 13.09 20.2190476190476  13.31 19.3809523809524  13.42 18.1238095238095  C 13.86 18.0190476190476  14.3 17.8095238095238  14.74 17.6  L 16.72 19.0666666666667  C 16.83 19.1714285714286  16.94 19.1714285714286  17.05 19.1714285714286  C 17.27 19.1714285714286  17.71 18.8571428571429  18.37 18.2285714285714  C 19.03 17.6  19.58 17.0761904761905  19.8 16.7619047619048  C 19.91 16.6571428571429  19.91 16.552380952381  19.91 16.4476190476191  C 19.91 16.3428571428571  19.91 16.2380952380952  19.8 16.1333333333333  C 19.14 15.2952380952381  18.59 14.6666666666667  18.26 14.2476190476191  C 18.48 13.9333333333333  18.59 13.5142857142857  18.81 12.9904761904762  L 21.45 12.5714285714286  C 21.56 12.5714285714286  21.67 12.4666666666667  21.78 12.3619047619048  C 21.89 12.2571428571429  21.89 12.152380952381  21.89 12.0476190476191  L 21.89 9.00952380952381  Z M 15.4 10.4761904761905  C 15.4 12.7809523809524  13.42 14.6666666666667  11 14.6666666666667  C 8.58 14.6666666666667  6.6 12.7809523809524  6.6 10.4761904761905  C 6.6 8.17142857142857  8.58 6.28571428571429  11 6.28571428571429  C 13.42 6.28571428571429  15.4 8.17142857142857  15.4 10.4761904761905  Z " fill-rule="nonzero" fill="#ffffff" stroke="none" transform="matrix(1 0 0 1 36 365 )" />
  </g>
</svg>