<?xml version="1.0" encoding="utf-8"?>
<svg version="1.1" xmlns:xlink="http://www.w3.org/1999/xlink" width="213px" height="39px" xmlns="http://www.w3.org/2000/svg">
  <g transform="matrix(1 0 0 1 -72 -235 )">
    <path d="M 66.7573170731707 24.57  C 66.7573170731707 32.5  60.5231707317073 39  52.0810975609756 39  C 43.7689024390244 39  37.5347560975609 32.63  37.5347560975609 24.7  C 37.5347560975609 16.77  43.7689024390244 10.27  52.2109756097561 10.27  C 60.6530487804878 10.27  66.7573170731707 16.64  66.7573170731707 24.57  Z M 117.409756097561 33.8  C 114.812195121951 36.92  111.175609756098 39  106.240243902439 39  C 98.3176829268293 39  92.2134146341463 33.28  92.2134146341463 24.7  C 92.2134146341463 16.77  97.7981707317073 10.4  105.590853658537 10.4  C 114.292682926829 10.4  118.708536585366 17.29  118.708536585366 25.22  C 118.708536585366 25.74  118.708536585366 26.26  118.578658536585 27  L 98.4475609756098 27  C 99.2268292682927 31.33  102.343902439024 33.8  106.37012195122 33.8  C 109.487195121951 33.8  111.565243902439 32.63  113.773170731707 30.55  L 117.409756097561 33.8  Z M 210.27256097561 32.37  L 212.090853658537 33.93  C 209.363414634146 36.79  206.246341463415 38.87  201.181097560976 38.87  C 193.907926829268 39  187.933536585366 33.41  187.933536585366 25.09  C 187.933536585366 17.29  193.388414634146 11.18  200.531707317073 11.18  C 207.934756097561 11.18  212.740243902439 17.16  212.740243902439 25.09  C 212.740243902439 25.61  212.740243902439 25.74  212.740243902439 26  L 190.790853658537 26  C 191.310365853658 32.76  195.985975609756 36.53  201.181097560976 36.53  C 205.337195121951 36.53  208.064634146341 34.71  210.27256097561 32.37  Z M 0 38.35  L 0 1.95  L 6.49390243902439 1.95  L 17.5335365853659 19.11  L 28.5731707317073 1.95  L 35 1.95  L 35 38.35  L 29 38.35  L 29 12.22  L 17.6634146341463 29.38  L 17.4036585365854 29.38  L 7 12.35  L 7 38.35  L 0 38.35  Z M 79.4853658536585 31.07  L 86.8884146341463 10.92  L 93.5121951219512 10.92  L 82.3426829268293 38.61  L 76.6280487804878 38.61  L 65.3286585365854 10.92  L 72.0823170731707 10.92  L 79.4853658536585 31.07  Z M 123.254268292683 10.4  L 123.254268292683 10.53  C 123.254268292683 14.43  125.20243902439 16.77  133.904268292683 18.46  C 142.346341463415 20.15  145.853048780488 23.14  145.853048780488 28.47  L 145.853048780488 28.6  C 145.853048780488 34.45  140.787804878049 38.48  133.774390243902 38.48  C 127.8 38.87  123.384146341463 36.92  118.968292682927 33.02  L 120.786585365854 30.94  C 124.812804878049 34.58  128.449390243902 36.4  133.774390243902 36.4  C 139.229268292683 36.4  142.995731707317 33.28  142.995731707317 29.12  L 142.995731707317 28.99  C 142.995731707317 25.09  140.917682926829 22.88  132.735365853659 21.19  C 124.033536585366 19.37  120.526829268293 16.51  120.526829268293 10.92  L 120.526829268293 10.79  C 120.526829268293 5.32999999999999  125.462195121951 1.17  132.215853658537 1.17  C 137.540853658537 1.17  141.04756097561 2.6  144.684146341463 5.59  L 142.995731707317 7.67  C 139.618902439024 4.68  136.112195121951 3.50999999999999  132.085975609756 3.50999999999999  C 126.760975609756 3.50999999999999  123.254268292683 6.62999999999999  123.254268292683 10.4  Z M 171 11.83  L 171 38.35  L 168.581707317073 38.35  L 168.581707317073 33.41  C 166.763414634146 36.53  163.906097560976 39  158.970731707317 39  C 152.217073170732 39  148.320731707317 34.45  148 28.08  L 148 11.83  L 151 11.83  L 151 27.56  C 150.918292682927 33.02  154.035365853659 36.66  159.360365853659 36.66  C 164.555487804878 36.66  168.581707317073 32.76  168 27.17  L 168 11.83  L 171 11.83  Z M 189.492073170732 14.3  C 183.387804878049 14.3  178.062804878049 18.98  178 27.56  L 178 38.48  L 175 38.48  L 175 11.83  L 178.062804878049 11.83  L 178.062804878049 19.37  C 180.140853658537 14.69  184.556707317073 11.18  189.751829268293 11.44  L 189.751829268293 14.3  L 189.492073170732 14.3  Z M 60.3932926829268 24.7  C 60.5231707317073 19.89  57.0164634146342 15.86  52.0810975609756 15.86  C 47.0158536585366 15.86  43.7689024390244 19.76  43.7689024390244 24.7  C 43.7689024390244 29.64  47.2756097560975 33.54  52.0810975609756 33.54  C 57.1463414634146 33.54  60.3932926829268 29.64  60.3932926829268 24.7  Z M 98.3176829268292 22  L 112.474390243902 22  C 112.084756097561 18.72  109.617073170732 15.47  105.460975609756 15.47  C 101.564634146341 15.47  98.9670731707317 18.46  98.3176829268292 22  Z M 209.882926829268 23.79  C 209.493292682927 18.46  206.506097560976 13.52  200.401829268293 13.52  C 195.206707317073 13.52  191.050609756098 17.94  190.660975609756 23.79  L 209.882926829268 23.79  Z " fill-rule="nonzero" fill="#333333" stroke="none" transform="matrix(1 0 0 1 72 235 )" />
  </g>
</svg>