<?xml version="1.0" encoding="utf-8"?>
<svg version="1.1" xmlns:xlink="http://www.w3.org/1999/xlink" width="30px" height="30px" xmlns="http://www.w3.org/2000/svg">
  <g transform="matrix(1 0 0 1 -870 -812 )">
    <path d="M 18.4090909090909 22.1377840909091  C 18.1960227272727 22.3508522727273  17.9296875 22.4573863636364  17.6633522727273 22.4573863636364  C 17.3970170454545 22.4573863636364  17.1306818181818 22.3508522727273  16.9176136363636 22.1377840909091  L 10.5255681818182 15.7457386363636  C 10.0994318181818 15.3196022727273  10.0994318181818 14.6803977272727  10.5255681818182 14.2542613636364  L 16.9176136363636 7.86221590909091  C 17.34375 7.43607954545454  17.9829545454545 7.43607954545454  18.4090909090909 7.86221590909091  C 18.8352272727273 8.28835227272727  18.8352272727273 8.92755681818182  18.4090909090909 9.35369318181818  L 12.7627840909091 15  L 18.4090909090909 20.6463068181818  C 18.8352272727273 21.0724431818182  18.8352272727273 21.7116477272727  18.4090909090909 22.1377840909091  Z M 29.9147727272727 15  C 29.9147727272727 23.203125  23.203125 29.9147727272727  15 29.9147727272727  C 6.796875 29.9147727272727  0.0852272727272727 23.203125  0.0852272727272727 15  C 0.0852272727272727 6.796875  6.796875 0.0852272727272727  15 0.0852272727272727  C 23.203125 0.0852272727272727  29.9147727272727 6.796875  29.9147727272727 15  Z M 27.7840909090909 15  C 27.7840909090909 7.96875  22.03125 2.21590909090909  15 2.21590909090909  C 7.96875 2.21590909090909  2.21590909090909 7.96875  2.21590909090909 15  C 2.21590909090909 22.03125  7.96875 27.7840909090909  15 27.7840909090909  C 22.03125 27.7840909090909  27.7840909090909 22.03125  27.7840909090909 15  Z " fill-rule="nonzero" fill="#ffffff" stroke="none" transform="matrix(1 0 0 1 870 812 )" />
  </g>
</svg>