<?xml version="1.0" encoding="utf-8"?>
<svg version="1.1" xmlns="http://www.w3.org/2000/svg" xmlns:xlink="http://www.w3.org/1999/xlink" x="0px" y="0px"
	 viewBox="0 0 24 24">
<g transform="matrix(1 0 0 1 -1072 -22 )">
	<path fill="#FFFFFF" d="M1091.4,38.8c0.1,0.2,0.1,0.4,0.1,0.6c0,0.2,0,0,0,0.3s0,0.5-0.1,0.7c0,0.2-0.1,0.4-0.2,0.5
		c-0.1,0.1-0.2,0.2-0.5,0.2c-0.2,0.1-2.8,0.8-6.5,0.8c-3.3,0-6.2-0.5-6.7-0.6c-0.5-0.1-0.7-0.2-0.8-0.3c-0.1-0.1-0.2-0.3-0.3-0.8
		c-0.1-0.4,0-0.5,0.1-1.2c0.1-0.4,0.2-0.7,0.5-0.9c0.3-0.2,0.6-0.4,0.9-0.5c0.3-0.1,1.9-0.7,2.3-0.8c0.4-0.1,0.7-0.2,1-0.4
		c0.2-0.1,0.4-0.3,0.5-0.4c0.1-0.1,0.2-0.3,0.3-0.4c0-0.1,0.1-0.3,0.1-0.4c0-0.1,0-0.3,0-0.4c0-0.3-0.1-0.5-0.2-0.6
		c-0.1-0.1-0.3-0.3-0.5-0.4c-0.1-0.1-0.2-0.2-0.2-0.3c-0.1-0.1-0.1-0.3-0.2-0.4c-0.1-0.2-0.1-0.3-0.2-0.5c-0.1,0-0.1-0.1-0.2-0.1
		c-0.1-0.1-0.1-0.1-0.2-0.2c-0.1-0.1-0.1-0.2-0.2-0.4c-0.1-0.2-0.1-0.3-0.1-0.5c0-0.1,0-0.3,0.1-0.4c0-0.1,0.1-0.2,0.2-0.3
		c0-0.4,0-0.8,0.1-1.2c0-0.3,0.1-0.7,0.2-1.1s0.3-0.7,0.5-1c0.2-0.3,0.4-0.5,0.7-0.7c0.2-0.2,0.5-0.3,0.8-0.4
		c0.3-0.1,0.5-0.2,0.8-0.2c0.3,0,0.5-0.1,0.8-0.1c0.3,0,0.6,0,0.9,0.1c0.3,0.1,0.5,0.2,0.8,0.3c0.2,0.1,0.5,0.2,0.6,0.4
		c0.2,0.1,0.3,0.3,0.5,0.4c0.3,0.3,0.5,0.7,0.6,1.1c0.1,0.4,0.2,0.8,0.3,1.2c0.1,0.4,0.1,0.8,0.1,1.3c0.1,0,0.1,0.1,0.2,0.2
		c0,0.1,0.1,0.2,0.1,0.3c0,0.1,0,0.3,0,0.4c0,0.2-0.1,0.4-0.1,0.5c-0.1,0.1-0.1,0.2-0.2,0.3c-0.1,0.1-0.2,0.1-0.3,0.2
		c0,0.2-0.1,0.3-0.1,0.5c-0.1,0.1-0.1,0.3-0.2,0.4c-0.1,0.1-0.1,0.2-0.2,0.3c-0.1,0.1-0.2,0.2-0.3,0.2c-0.1,0.1-0.2,0.1-0.2,0.2
		c-0.1,0.1-0.1,0.1-0.2,0.2c0,0.1-0.1,0.2-0.1,0.3c0,0.2,0,0.3,0,0.5c0,0.2,0.1,0.3,0.1,0.5s0.2,0.3,0.4,0.5
		c0.2,0.1,0.4,0.3,0.7,0.4c0.3,0.1,0.6,0.2,0.9,0.3c0.3,0.1,1.6,0.6,1.9,0.7c0.3,0.1,0.6,0.3,0.8,0.4
		C1091.1,38.3,1091.3,38.5,1091.4,38.8z M1084.3,41c0.1,0,0.1,0,0.2-0.1c0.1-0.1,0.2-0.1,0.3-0.2s0.2-0.2,0.3-0.3
		c0.1-0.1,0.1-0.2,0.1-0.2c0-0.1,0-0.2,0-0.3c0-0.2-0.1-0.3-0.1-0.5c0-0.2-0.1-0.4-0.1-0.6c0-0.2-0.1-0.3-0.1-0.5
		c0.1-0.1,0.2-0.2,0.3-0.3c0.1-0.1,0.1-0.2,0.1-0.3c0-0.1,0-0.2-0.1-0.3c-0.1-0.1-0.1-0.2-0.2-0.2c-0.1-0.1-0.2-0.1-0.3-0.2h-0.8
		c-0.1,0.1-0.2,0.1-0.3,0.2c-0.1,0.1-0.1,0.1-0.2,0.2s-0.1,0.2-0.1,0.3c0,0.1,0,0.1,0.1,0.3s0.2,0.2,0.3,0.3c0,0.1-0.1,0.2-0.1,0.4
		c-0.1,0.2-0.1,0.4-0.1,0.6c0,0.2-0.1,0.4-0.1,0.6c0,0.2-0.1,0.3-0.1,0.4c0,0.1,0,0.1,0.1,0.2c0.1,0.1,0.2,0.2,0.3,0.3
		c0.1,0.1,0.2,0.2,0.3,0.2C1084.2,40.9,1084.3,41,1084.3,41z"/>
</g>
<image overflow="visible" width="96" height="66" xlink:href="310B4A97.jpg"  transform="matrix(1 0 0 1 64.25 -58.5)">
</image>
</svg>
