<?xml version="1.0" encoding="utf-8"?>
<svg version="1.1" xmlns:xlink="http://www.w3.org/1999/xlink" width="159px" height="26px" xmlns="http://www.w3.org/2000/svg">
  <g transform="matrix(1 0 0 1 -40 -27 )">
    <path d="M 30.8321739130435 16.224  C 30.8321739130435 14.9066666666667  31.0793152173913 13.6647333333333  31.5753260869565 12.4973333333333  C 32.070472826087 11.3299333333333  32.7505434782608 10.3133333333333  33.6146739130435 9.44666666666667  C 34.4788043478261 8.58000000000001  35.5036630434783 7.89273333333336  36.6909782608696 7.38400000000001  C 37.8774293478261 6.87613333333333  39.173625 6.62133333333335  40.5795652173913 6.62133333333335  C 41.9846413043478 6.62133333333335  43.2808369565218 6.87006666666669  44.4681521739131 7.36666666666667  C 45.6546032608696 7.86413333333334  46.6803260869565 8.54533333333334  47.5444565217391 9.41200000000001  C 48.4085869565217 10.2786666666667  49.0826086956522 11.2900666666667  49.5665217391304 12.4453333333333  C 50.0504347826087 13.6006  50.2923913043479 14.8373333333333  50.2923913043479 16.1546666666667  C 50.2923913043479 17.472  50.0443858695652 18.7087333333333  49.5492391304348 19.864  C 49.0532282608696 21.0192666666667  48.3740217391305 22.0306666666667  47.5098913043478 22.8973333333333  C 46.6457608695652 23.764  45.6139891304348 24.4512666666667  44.4163043478261 24.96  C 43.2177554347826 25.4678666666667  41.9155108695652 25.7226666666667  40.5104347826087 25.7226666666667  C 39.1278260869565 25.7226666666667  37.8428641304348 25.4739333333333  36.6564130434783 24.9773333333333  C 35.469097826087 24.4807333333333  34.4442391304348 23.7986666666667  33.5801086956522 22.932  C 32.7159782608696 22.0653333333333  32.0419565217392 21.06  31.5580434782609 19.916  C 31.0741304347826 18.772  30.8321739130435 17.5413333333333  30.8321739130435 16.224  Z M 76.1851956521739 7.24533333333332  C 77.2083260869565 6.82933333333333  78.259972826087 6.62133333333332  79.3401358695652 6.62133333333332  C 80.8342173913043 6.62133333333332  82.0759728260869 6.94546666666668  83.0645380434783 7.59199999999999  C 84.0531032608696 8.23940000000001  84.8809402173913 8.99079999999999  85.5489130434783 9.84533333333332  L 85.5489130434783 0  L 89 0  L 89 25.3066666666667  L 85.5480489130435 25.3066666666667  L 85.5480489130435 22.256  C 84.8809402173913 23.2041333333333  84.0479184782609 24.0127333333333  83.0472554347826 24.6826666666667  C 82.0465923913043 25.3526  80.81175 25.688  79.3401358695652 25.688  C 78.259972826087 25.688  77.2135108695652 25.48  76.2016141304348 25.064  C 75.1897173913043 24.648  74.2936141304347 24.0300666666667  73.5124402173913 23.2093333333333  C 72.730402173913 22.3894666666667  72.098722826087 21.3893333333333  71.6165380434782 20.2106666666667  C 71.1334891304348 19.032  70.8923967391304 17.68  70.8923967391304 16.1546666666667  C 70.8923967391304 14.6293333333333  71.1274402173913 13.2773333333333  71.5992554347826 12.0986666666666  C 72.0702065217391 10.92  72.6967010869565 9.92073333333334  73.4787391304348 9.1  C 74.2599130434782 8.28013333333334  75.1629293478261 7.66133333333334  76.1851956521739 7.24533333333332  Z M 158.788288043478 16.4684  C 158.788288043478 16.7110666666667  158.788288043478 16.8844  158.753722826087 17  L 144.13522826087 17  C 144.446315217391 21.5635333333333  147.590885869565 24.128  151.047407608696 24.128  C 153.778059782609 24.128  155.643717391304 22.9146666666667  157.095456521739 21.3555333333334  L 158.269809782609 22.3955333333333  C 156.472418478261 24.3368666666667  154.364804347826 25.7226666666667  150.978277173913 25.7226666666667  C 146.347402173913 25.7226666666667  142.338701086957 22.0142  142.338701086957 16.5030666666667  C 142.338701086957 11.3732666666667  145.932619565217 7.21413333333334  150.701755434783 7.21413333333334  C 155.643717391304 7.21413333333334  158.788288043478 11.2346  158.788288043478 16.4684  Z M 6.70565217391304 7.05466666666665  C 5.99101630434782 7.82946666666666  5.43797282608696 8.73599999999999  5.04652173913041 9.776  C 4.6542065217391 10.816  4.45891304347823 11.9374666666667  4.45891304347823 13.1386666666667  C 4.45891304347823 14.3407333333333  4.6542065217391 15.4674  5.04652173913041 16.5186666666667  C 5.43797282608696 17.5708  5.99101630434782 18.4894666666667  6.70565217391304 19.2746666666667  C 7.41942391304349 20.0607333333333  8.26627173913041 20.6786666666667  9.2461956521739 21.1293333333333  C 10.2252554347826 21.58  11.2907282608695 21.8053333333333  12.4434782608695 21.8053333333333  C 13.9185489130435 21.8053333333333  15.1853641304348 21.5228  16.2456521739131 20.956  C 17.3050760869565 20.3900666666667  18.3541304347826 19.6213333333333  19.3910869565217 18.6506666666667  L 22.1217391304348 21.424  C 21.4995652173913 22.0948  20.8480108695652 22.6893333333333  20.1688043478261 23.2093333333333  C 19.4887336956522 23.7293333333333  18.7568152173913 24.18  17.9739130434783 24.5613333333333  C 17.1901467391305 24.9426666666667  16.3320652173913 25.2312666666667  15.3988043478261 25.428  C 14.4655434782609 25.6238666666667  13.4337717391304 25.7226666666667  12.3052173913044 25.7226666666667  C 10.5302934782609 25.7226666666667  8.8944945652174 25.3985333333333  7.39695652173913 24.752  C 5.89855434782611 24.1054666666667  4.60235869565219 23.2214666666667  3.50836956521739 22.1  C 2.41351630434783 20.9794  1.55543478260871 19.656  0.933260869565253 18.1306666666667  C 0.311086956521751 16.6053333333333  0 14.9647333333333  0 13.208  C 0 11.4746666666667  0.305038043478268 9.84533333333335  0.915978260869567 8.32  C 1.52691847826087 6.79466666666667  2.38499999999999 5.46000000000001  3.49108695652176 4.31599999999999  C 4.59717391304347 3.172  5.91065217391302 2.27066666666667  7.43152173913045 1.61200000000001  C 8.95239130434784 0.953333333333328  10.6339891304348 0.623999999999999  12.4780434782609 0.623999999999999  C 13.5841304347826 0.623999999999999  14.5917065217391 0.716733333333332  15.5025 0.901333333333326  C 16.4124293478261 1.08679999999999  17.2480434782609 1.3468  18.0084782608695 1.68133333333333  C 18.7689130434783 2.01673333333333  19.4714510869565 2.41540000000001  20.1169565217391 2.87733333333333  C 20.761597826087 3.34013333333332  21.3725380434783 3.848  21.9489130434782 4.40266666666665  L 19.2182608695652 7.55733333333333  C 18.2504347826087 6.65600000000001  17.2247119565217 5.928  16.1419565217391 5.37333333333332  C 15.0583369565217 4.81866666666667  13.8260869565217 4.54133333333334  12.4434782608695 4.54133333333334  C 11.2915923913044 4.54133333333334  10.2261195652174 4.76666666666667  9.2461956521739 5.21733333333334  C 8.26627173913041 5.66799999999999  7.41942391304349 6.28073333333335  6.70565217391304 7.05466666666665  Z M 29 0  L 29 25.3066666666667  L 25 25.3066666666667  L 25 0  L 29 0  Z M 53 18.6506666666667  L 53 7.00266666666665  L 57 7.00266666666665  L 57 17.3784  C 56.4795652173913 18.8084  56.8157119565218 19.9090666666667  57.4897336956522 20.6812666666667  C 58.1637554347826 21.4534666666667  59.1168913043478 21.84  60.3517336956522 21.84  C 61.5623804347826 21.84  62.5448967391305 21.4422  63.2984184782608 20.6466  C 64.0528043478261 19.8518666666667  64.4295652173913 18.7390666666667  65 17.3090666666667  L 65 7.00266666666665  L 69 7.00266666666665  L 69 25.3066666666667  L 64.4295652173913 25.3066666666667  L 64.4295652173913 22.4345333333333  C 63.8324510869565 23.3211333333333  63.0849782608696 24.0846666666667  62.1897391304348 24.726  C 61.2927717391304 25.3673333333333  60.1443423913043 25.688  58.7427228260869 25.688  C 56.6739945652174 25.688  55.0770815217391 25.0527333333333  53.9519836956522 23.7813333333333  C 52.8260217391304 22.5108  52.2626086956522 20.8  53 18.6506666666667  Z M 109.362619565217 3.64346666666667  L 108.221967391304 5.06479999999999  C 105.941527173913 3.08879999999999  103.660222826087 2.32613333333333  100.999565217391 2.32613333333333  C 97.4402119565217 2.32613333333333  95.0897771739131 4.37146666666668  95.0897771739131 6.90126666666666  C 95.0897771739131 9.46573333333333  96.4032554347826 11.0950666666667  102.140217391304 12.2737333333333  C 107.738918478261 13.4177333333333  110.088489130435 15.4284  110.088489130435 18.9635333333333  C 110.08589673913 22.88  106.733934782609 25.6533333333333  102.068494565217 25.6533333333333  C 98.198054347826 25.6533333333333  95.2263097826087 24.3715333333333  92.3228315217391 21.7715333333333  L 93.4980489130435 20.4195333333333  C 96.1595706521739 22.8808666666667  98.6128369565218 24.024  102.173054347826 24.024  C 105.801538043478 24.024  108.290233695652 21.9795333333333  108.290233695652 19.2062  C 108.290233695652 16.6417333333333  106.942190217391 15.0817333333333  101.448048913043 13.9724  C 95.6419565217392 12.7937333333333  93.2923858695652 10.8177333333333  93.2923858695652 7.14393333333333  C 93.2923858695652 3.53946666666667  96.5752173913043 0.697666666666673  101.068695652174 0.697666666666673  C 104.593483695652 0.697666666666673  106.90935326087 1.66833333333334  109.362619565217 3.64346666666667  Z M 120.491755434783 24.1635333333333  C 123.948277173913 24.1635333333333  126.608934782609 21.5288666666667  126 17.8550666666667  L 126 7.63013333333333  L 128 7.63013333333333  L 128 25.3066666666667  L 126.608934782609 25.3066666666667  L 126.608934782609 22.0142  C 125.433717391304 24.0933333333333  123.4635 25.7226666666667  120.249798913043 25.7226666666667  C 115.79175 25.7226666666667  113.199358695652 22.672  113 18.4444  L 113 7.63013333333333  L 115 7.63013333333333  L 115 18.1324  C 114.893054347826 21.7724  116.931538043478 24.1635333333333  120.491755434783 24.1635333333333  Z M 134.35327173913 7.63013333333333  L 134.35327173913 12.6559333333333  C 135.735880434783 9.50213333333333  138.673059782609 7.21413333333334  142.163282608696 7.35280000000001  L 142.163282608696 9.2248  L 141.990456521739 9.2248  C 137.912625 9.2248  134.35327173913 12.3092666666667  134.35327173913 18.0630666666667  L 134.35327173913 25.3066666666667  L 132 25.3066666666667  L 132 7.63013333333333  L 134.35327173913 7.63013333333333  Z M 35.0491304347826 16.1546666666667  C 35.0491304347826 16.9641333333333  35.186527173913 17.732  35.4613206521739 18.46  C 35.73525 19.188  36.1189239130435 19.8180666666667  36.6123423913044 20.3493333333333  C 37.1048967391304 20.8814666666667  37.6890489130435 21.3026666666667  38.3639347826087 21.6146666666667  C 39.0396847826087 21.9266666666667  39.7785163043478 22.0826666666667  40.5795652173913 22.0826666666667  C 41.4264130434783 22.0826666666667  42.1877119565218 21.9266666666667  42.8634619565217 21.6146666666667  C 43.5392119565217 21.3026666666667  44.1173152173913 20.8806  44.5977717391304 20.3493333333333  C 45.0782282608696 19.8180666666667  45.4446195652174 19.2001333333333  45.6969456521739 18.4946666666667  C 45.9484076086957 17.7900666666667  46.0754347826087 17.0326  46.0754347826087 16.224  C 46.0754347826087 15.4154  45.9380380434783 14.6527333333333  45.6632445652174 13.936  C 45.3884510869565 13.2201333333333  45.0047771739131 12.5900666666667  44.512222826087 12.0466666666667  C 44.0196684782609 11.5041333333333  43.4355163043478 11.076  42.7597663043478 10.764  C 42.0840163043478 10.452  41.3348152173913 10.296  40.5104347826087 10.296  C 39.6860543478261 10.296  38.9359891304348 10.452  38.2602391304348 10.764  C 37.5844891304348 11.076  37.0063858695653 11.4980666666667  36.5259293478261 12.0293333333333  C 36.045472826087 12.5614666666667  35.6790815217391 13.1794  35.4267554347826 13.884  C 35.1752934782609 14.5894666666667  35.0491304347826 15.3460666666667  35.0491304347826 16.1546666666667  Z M 76.6587391304348 20.4533333333334  C 77.1409239130435 20.9620666666667  77.6982880434782 21.3546666666667  78.3299673913043 21.632  C 78.9616467391304 21.9093333333333  79.6339402173913 22.048  80.3459836956522 22.048  C 81.0346956521739 22.048  81.7009402173913 21.9093333333333  82.3447173913043 21.632  C 82.9876304347826 21.3546666666667  83.5501793478261 20.956  84.0323641304348 20.436  C 84.5145489130435 19.916  84.8990869565217 19.2980666666667  85.1868423913044 18.5813333333333  C 85.4745978260869 17.8646  85.6180434782608 17.056  85.6180434782608 16.1546666666667  C 85.6180434782608 15.2533333333334  85.4737336956522 14.4447333333333  85.1868423913044 13.728  C 84.8990869565218 13.0121333333333  84.5145489130435 12.3933333333333  84.0323641304348 11.8733333333333  C 83.550179347826 11.3533333333333  82.9876304347826 10.9546666666667  82.3447173913043 10.6773333333333  C 81.7018043478261 10.4  81.0355597826086 10.2613333333333  80.3459836956522 10.2613333333333  C 79.6339402173913 10.2613333333333  78.9625108695652 10.3948  78.3299673913043 10.66  C 77.6982880434782 10.9260666666667  77.1417880434782 11.3126  76.6587391304348 11.8213333333333  C 76.1765543478261 12.3300666666667  75.7972010869565 12.948  75.5224076086956 13.676  C 75.24675 14.404  75.1084891304348 15.2299333333333  75.1084891304348 16.1546666666667  C 75.1084891304348 17.056  75.24675 17.8706666666667  75.5224076086956 18.5986666666667  C 75.7972010869565 19.3266666666667  76.1765543478261 19.9454666666667  76.6587391304348 20.4533333333334  Z M 156.957195652174 15.6  C 156.715239130435 12.0666  154.675891304348 8.77413333333333  150.632625 8.77413333333333  C 147.142402173913 8.77413333333333  144.446315217391 11.7199333333333  144.13522826087 15.6  L 156.957195652174 15.6  Z " fill-rule="nonzero" fill="#ffffff" stroke="none" transform="matrix(1 0 0 1 40 27 )" />
  </g>
</svg>