<?xml version="1.0" encoding="utf-8"?>
<svg version="1.1" xmlns:xlink="http://www.w3.org/1999/xlink" width="15px" height="18px" xmlns="http://www.w3.org/2000/svg">
  <g transform="matrix(1 0 0 1 -1008 -22 )">
    <path d="M 4.70788043478261 14.6623002819549  L 9.30163043478261 14.6623002819549  C 9.30163043478261 15.9230204417293  8.27921195652174 16.9041353383459  7.00475543478261 16.9041353383459  C 5.73029891304348 16.9041353383459  4.70788043478261 15.9230204417293  4.70788043478261 14.6623002819549  Z M 8.53838315217391 1.58326480263158  L 8.53600543478261 1.58326480263158  C 8.53600543478261 0.741952537593985  7.87262228260869 0.0878759398496241  7.00475543478261 0.0878759398496241  C 6.13688858695652 0.0878759398496241  5.47350543478261 0.741952537593985  5.47350543478261 1.58326480263158  L 5.47350543478261 1.81543703007519  C 3.38111413043478 2.51694666353384  1.64538043478261 4.7562852443609  1.64538043478261 7.37508811090226  L 1.64538043478261 9.4296875  C 1.64538043478261 9.4296875  1.64538043478261 12.3705357142857  0.879755434782607 12.41796875  C 0.420855978260868 12.41796875  0.114130434782607 12.7450070488722  0.114130434782607 13.164414943609  C 0.114130434782607 13.5863193139098  0.470788043478259 13.910861137218  0.879755434782607 14  L 13.1321331521739 14  C 13.5411005434783 13.910861137218  13.8977581521739 13.5838228383459  13.8977581521739 13.164414943609  C 13.8977581521739 12.7425105733083  13.5411005434783 12.41796875  13.1321331521739 12.41796875  C 12.3665081521739 12.41796875  12.3665081521739 9.4296875  12.3665081521739 9.4296875  L 12.3665081521739 7.37508811090225  C 12.3665081521739 4.76127819548872  10.7330163043478 2.56437969924812  8.53838315217391 1.81543703007519  L 8.53838315217391 1.58326480263158  Z " fill-rule="nonzero" fill="#b3b3b3" stroke="none" transform="matrix(1 0 0 1 1008 22 )" />
  </g>
</svg>